/* XPM */
static char * bitcoin64_xpm[] = {
"64 64 373 2",
"  	c None",
". 	c #1F79A0",
"+ 	c #207BA0",
"@ 	c #207AA1",
"# 	c #207B9F",
"$ 	c #217A9F",
"% 	c #207A9F",
"& 	c #207AA0",
"* 	c #1F7BA0",
"= 	c #1F7AA0",
"- 	c #207CA1",
"; 	c #207BA1",
"> 	c #3286A9",
", 	c #428FAF",
"' 	c #207BA2",
") 	c #217CA1",
"! 	c #BBD7E2",
"~ 	c #D4E6ED",
"{ 	c #257EA3",
"] 	c #7EB2C8",
"^ 	c #FFFFFF",
"/ 	c #9AC3D4",
"( 	c #4691B1",
"_ 	c #F7FAFC",
": 	c #FDFEFE",
"< 	c #5B9EBA",
"[ 	c #C4DCE6",
"} 	c #E0EDF2",
"| 	c #62A3BD",
"1 	c #F5F9FB",
"2 	c #EAF3F6",
"3 	c #7EB3C9",
"4 	c #207DA1",
"5 	c #237EA2",
"6 	c #D9E9EF",
"7 	c #7BB1C7",
"8 	c #5C9FBA",
"9 	c #FEFEFF",
"0 	c #EEF5F8",
"a 	c #2D84A7",
"b 	c #71ACC3",
"c 	c #BFD9E4",
"d 	c #217DA1",
"e 	c #A3C9D8",
"f 	c #8CBCCF",
"g 	c #1F7DA2",
"h 	c #1F7CA1",
"i 	c #CBE0E9",
"j 	c #F2F7F9",
"k 	c #3689AA",
"l 	c #2A82A5",
"m 	c #E2EEF3",
"n 	c #E4EFF4",
"o 	c #227DA2",
"p 	c #217CA2",
"q 	c #4390B0",
"r 	c #92BFD1",
"s 	c #78AFC6",
"t 	c #5FA0BC",
"u 	c #9BC4D5",
"v 	c #F4F8FA",
"w 	c #257FA4",
"x 	c #E3EFF3",
"y 	c #B6D4E0",
"z 	c #217CA3",
"A 	c #DAE9EF",
"B 	c #9AC3D5",
"C 	c #7DB2C9",
"D 	c #F2F7FA",
"E 	c #247EA3",
"F 	c #3085A8",
"G 	c #5098B6",
"H 	c #3487AA",
"I 	c #4B95B4",
"J 	c #217DA2",
"K 	c #63A4BE",
"L 	c #ECF4F7",
"M 	c #237EA3",
"N 	c #D2E4EC",
"O 	c #7FB4C9",
"P 	c #8DBCCF",
"Q 	c #ADCFDD",
"R 	c #A9CDDB",
"S 	c #9FC7D7",
"T 	c #86B8CC",
"U 	c #73ADC4",
"V 	c #BBD7E3",
"W 	c #217EA3",
"X 	c #B0D1DE",
"Y 	c #6DA9C2",
"Z 	c #5DA0BB",
"` 	c #CCE1E9",
" .	c #217DA3",
"..	c #C0DAE5",
"+.	c #4994B3",
"@.	c #DBEAF0",
"#.	c #B8D6E1",
"$.	c #70ABC3",
"%.	c #549BB8",
"&.	c #D3E5EC",
"*.	c #A6CBDA",
"=.	c #85B8CC",
"-.	c #6AA8C1",
";.	c #C1DBE5",
">.	c #94C0D3",
",.	c #9CC5D6",
"'.	c #80B5CA",
").	c #227FA3",
"!.	c #378BAC",
"~.	c #539BB8",
"{.	c #5CA0BC",
"].	c #66A6BF",
"^.	c #6BA9C2",
"/.	c #5A9FBA",
"(.	c #4593B2",
"_.	c #2B84A7",
":.	c #79B1C7",
"<.	c #CEE3EB",
"[.	c #B2D2DF",
"}.	c #95C1D3",
"|.	c #2983A6",
"1.	c #4191B0",
"2.	c #579DB9",
"3.	c #68A7C0",
"4.	c #559CB9",
"5.	c #3A8DAD",
"6.	c #2480A4",
"7.	c #207FA2",
"8.	c #217FA3",
"9.	c #E1EEF3",
"0.	c #A2C9D8",
"a.	c #61A3BE",
"b.	c #4693B2",
"c.	c #3389AB",
"d.	c #EFF6F9",
"e.	c #569DB9",
"f.	c #D1E4EC",
"g.	c #FCFDFE",
"h.	c #3087A9",
"i.	c #86B9CD",
"j.	c #E7F1F5",
"k.	c #8EBDD0",
"l.	c #72ADC5",
"m.	c #2F86A9",
"n.	c #2681A5",
"o.	c #82B6CB",
"p.	c #DEECF1",
"q.	c #207DA4",
"r.	c #2D85A8",
"s.	c #CAE0E9",
"t.	c #98C3D4",
"u.	c #83B7CC",
"v.	c #89BACE",
"w.	c #CFE3EB",
"x.	c #FBFCFD",
"y.	c #E9F2F6",
"z.	c #75AFC6",
"A.	c #BAD7E2",
"B.	c #CCE1EA",
"C.	c #D5E7EE",
"D.	c #65A5BF",
"E.	c #D6E7EE",
"F.	c #A4CAD9",
"G.	c #94C1D3",
"H.	c #BED9E4",
"I.	c #FAFCFD",
"J.	c #3E8FAF",
"K.	c #227EA3",
"L.	c #7FB5CA",
"M.	c #77B0C7",
"N.	c #B6D5E1",
"O.	c #2C85A8",
"P.	c #6EABC3",
"Q.	c #599EBA",
"R.	c #3F90B0",
"S.	c #A1C8D8",
"T.	c #E5F0F4",
"U.	c #5BA0BB",
"V.	c #9AC4D5",
"W.	c #217EA4",
"X.	c #237FA4",
"Y.	c #DCEBF1",
"Z.	c #4090B0",
"`.	c #C4DDE6",
" +	c #A8CCDB",
".+	c #4492B1",
"++	c #CDE2EA",
"@+	c #F0F6F9",
"#+	c #84B8CC",
"$+	c #9BC5D6",
"%+	c #2E86A8",
"&+	c #4D97B5",
"*+	c #368AAC",
"=+	c #A3C9D9",
"-+	c #B4D3E0",
";+	c #4D98B5",
">+	c #C6DEE8",
",+	c #3288AA",
"'+	c #2882A6",
")+	c #62A4BE",
"!+	c #2180A3",
"~+	c #87BACD",
"{+	c #62A5BE",
"]+	c #F9FBFC",
"^+	c #3289AA",
"/+	c #2783A6",
"(+	c #89BBCE",
"_+	c #A0C8D8",
":+	c #5AA0BA",
"<+	c #398DAD",
"[+	c #D3E6ED",
"}+	c #B2D3DF",
"|+	c #96C2D3",
"1+	c #4091B0",
"2+	c #C0DBE5",
"3+	c #2481A4",
"4+	c #217FA4",
"5+	c #2582A6",
"6+	c #B7D5E1",
"7+	c #398DAE",
"8+	c #2C86A9",
"9+	c #368BAD",
"0+	c #2E87A9",
"a+	c #D8E8EF",
"b+	c #CBE1EA",
"c+	c #2180A4",
"d+	c #2481A5",
"e+	c #A4CADA",
"f+	c #DAEAF0",
"g+	c #B0D1DF",
"h+	c #C5DDE7",
"i+	c #2A84A8",
"j+	c #2D86A9",
"k+	c #B8D6E2",
"l+	c #2984A7",
"m+	c #217FA5",
"n+	c #70ADC4",
"o+	c #4694B3",
"p+	c #ABCEDC",
"q+	c #C1DBE6",
"r+	c #83B8CC",
"s+	c #227FA4",
"t+	c #9FC8D8",
"u+	c #72AEC5",
"v+	c #579EBA",
"w+	c #77B1C7",
"x+	c #89BBCF",
"y+	c #EBF3F7",
"z+	c #90BFD1",
"A+	c #7BB3C9",
"B+	c #5CA1BC",
"C+	c #3289AB",
"D+	c #61A4BE",
"E+	c #A5CBDA",
"F+	c #4393B2",
"G+	c #4091B1",
"H+	c #599FBB",
"I+	c #2682A6",
"J+	c #78B1C8",
"K+	c #E6F0F5",
"L+	c #ACCFDD",
"M+	c #A4CBDA",
"N+	c #D0E4EC",
"O+	c #2B85A8",
"P+	c #529BB8",
"Q+	c #4A97B5",
"R+	c #6CABC3",
"S+	c #E4F0F4",
"T+	c #89BCCF",
"U+	c #4192B1",
"V+	c #2D87A9",
"W+	c #E8F2F6",
"X+	c #FBFDFD",
"Y+	c #3D90AF",
"Z+	c #398EAE",
"`+	c #7EB5CA",
" @	c #2280A4",
".@	c #2683A6",
"+@	c #ADD0DD",
"@@	c #D1E5EC",
"#@	c #67A8C1",
"$@	c #82B7CC",
"%@	c #7DB5CA",
"&@	c #61A5BE",
"*@	c #9DC7D7",
"=@	c #5BA1BC",
"-@	c #C3DDE6",
";@	c #2884A7",
">@	c #BFDAE5",
",@	c #84B9CD",
"'@	c #2381A5",
")@	c #CCE2EA",
"!@	c #DFEDF2",
"~@	c #C6DEE7",
"{@	c #E6F1F5",
"]@	c #F6FAFB",
"^@	c #D2E5EC",
"/@	c #3189AA",
"(@	c #A8CDDB",
"_@	c #4695B3",
":@	c #559EB9",
"<@	c #F9FCFC",
"[@	c #C2DCE6",
"}@	c #ABCFDD",
"|@	c #4F9AB7",
"1@	c #4594B3",
"2@	c #2B86A8",
"3@	c #FCFEFE",
"4@	c #6AAAC2",
"5@	c #348BAC",
"6@	c #87BACE",
"7@	c #E3EFF4",
"8@	c #5CA2BC",
"9@	c #73AFC6",
"0@	c #8FBFD1",
"a@	c #6DABC3",
"b@	c #65A7C0",
"c@	c #E9F3F6",
"d@	c #7FB6CB",
"e@	c #64A6BF",
"f@	c #8DBED0",
"g@	c #78B2C8",
"h@	c #79B2C8",
"i@	c #C7DFE8",
"j@	c #F3F8FA",
"k@	c #328AAB",
"l@	c #2180A5",
"m@	c #2281A5",
"n@	c #3E91B0",
"o@	c #9AC5D6",
"p@	c #B7D6E2",
"q@	c #C4DDE7",
"r@	c #A1CAD9",
"s@	c #66A8C1",
"t@	c #2784A7",
"u@	c #64A7C0",
"v@	c #2985A8",
"w@	c #5FA4BE",
"x@	c #9BC6D6",
"y@	c #D2E5ED",
"z@	c #BBD8E3",
"A@	c #4B98B6",
"B@	c #519CB8",
"C@	c #4796B4",
"D@	c #2E88AA",
"E@	c #2280A5",
"F@	c #2281A6",
"G@	c #87BBCE",
"H@	c #4394B2",
"I@	c #71AEC5",
"J@	c #97C4D5",
"K@	c #EBF4F7",
"L@	c #F1F7F9",
"M@	c #F7FBFC",
"N@	c #3A8FAF",
"O@	c #2282A5",
"P@	c #80B7CB",
"Q@	c #9AC6D6",
"R@	c #2382A5",
"S@	c #2483A6",
"T@	c #C8E0E9",
"U@	c #2D88AA",
"V@	c #3F92B1",
"W@	c #529DB8",
"X@	c #2281A4",
"Y@	c #2182A5",
"Z@	c #2382A6",
"`@	c #2282A6",
" #	c #2182A6",
".#	c #2282A7",
"+#	c #2283A6",
"@#	c #2183A6",
"##	c #2284A6",
"                                                          . + @ @ # $ +                                                         ",
"                                              % & & & & & & & & & & & & & & & & %                                               ",
"                                        % & & & & & & & & & & & & & & & & & & & & & & *                                         ",
"                                    & = & & & & & & & & & & & & & & & & & & & & & & & & & *                                     ",
"                                + + + + + + + + + + + + + + + + + + + + + + + + + + + + + + + &                                 ",
"                              + + + + + + + + + + + + + + + + + + + + + + + + + + + + + + + + + +                               ",
"                          - ; ; ; ; ; ; ; ; ; ; ; ; ; ; ; ; ; ; ; ; ; ; ; ; ; ; ; ; ; ; ; ; ; ; ; ; ;                           ",
"                        ; ; ; ; ; ; ; ; ; ; ; ; ; ; ; ; ; ; ; > , ; ; ; ; ; ; ; ; ; ; ; ; ; ; ; ; ; ; ;                         ",
"                      ' ; ; ; ; ; ; ; ; ; ; ; ; ; ; ; ; ; ; ) ! ~ { ; ; ; ; ; ; ; ; ; ; ; ; ; ; ; ; ; ; ;                       ",
"                    ; ; ; ; ; ; ; ; ; ; ; ; ; ; ; ; ; ; ; ; ] ^ ^ / ; ; ; ; ; ; ; ; ; ; ; ; ; ; ; ; ; ; ; ;                     ",
"                  ; ; ; ; ; ; ; ; ; ; ; ; ; ; ; ; ; ; ; ; ( _ ^ ^ : < ; ; ; ; ; ; ; ; ; ; ; ; ; ; ; ; ; ; ; ;                   ",
"                ' ; ; ; ; ; ; ; ; ; ; ; ; ; ; ; ; ; ; ; ; [ ^ ^ ^ ^ } { ; ; ; ; ; ; ; ; ; ; ; ; ; ; ; ; ; ; ; ;                 ",
"              - - - - - - - - - - - - - - - - - - - - - | ^ ^ 1 2 ^ ^ 3 - - - - - - - - - - - - - - - - - - - - -               ",
"            4 - - - - - - - - - - - - - - - - - - - - 5 6 ^ ^ 7 8 9 ^ 0 a - - - - - - - - - - - - - - - - - - - - -             ",
"            - - - - - - - - - - - - - - - - - - - - - b ^ ^ c d - e ^ ^ f - - - - - - - - - - - - - - - - - - - - - g           ",
"          h - - - - - - - - - - - - - - - - - - - - - i ^ j k - - l m ^ n o - - - - - - - - - - - - - - - - - - - - -           ",
"        - p p p p p p p p p p p p p p p p p p p p p q 9 ^ r p p p p s ^ ^ t p p p p p p p p p p p p p p p p p p p p p p         ",
"        p p p p p p p p p p p p p p p p p p p p p p u ^ v > p p p p w x ^ y p p p p p p p p p p p p p p p p p p p p p p         ",
"      z p p p p p p p p p p p p p p p p p p p p p p A ^ B p p p p p p C ^ D E p p p p p p p p p p p p p p p p p p p p p p       ",
"      p p p p p p p p p p p p p p p p p p p p p p F : ^ G p p p p p p H : ^ I p p p p p p p p p p p p p p p p p p p p p p       ",
"    o J J J J J J J J J J J J J J J J J J J J J J K ^ L M J J J J J J J N ^ O J J J J J J J J J J J J J J J J J J J J J J o     ",
"    J J J J J J J J J J J J J J J J J J J J J J J P ^ Q J J J J J J J J r ^ R J J J J J J J J J J J J J J J J J J J J J J J     ",
"    J J J J J J J J J J J J J J J J J J J J J J J S ^ T J J J J J J J J U ^ V J J J J J J J J J J J J J J J J J J J J J J J     ",
"  W J J J J J J J J J J J J J J J J J J J J J J J X ^ Y J J J J J J J J Z ^ ` J J J J J J J J J J J J J J J J J J J J J J J o   ",
"   .J J J J J J J J J J J J J J J J J J J J J J J ..^ K J J J J J J J J +.^ @.J J J J J J J J J J J J J J J J J J J J J J J J   ",
"  J J J J J J J J J J J J J J J J J J J J J J J J #.^ $.J J J J J J J J %.^ &.J J J J J J J J J J J J J J J J J J J J J J J J   ",
"  J J J J J J J J J J J J J J J J J J J J J J J J *.^ =.J J J J J J J J -.^ ;.J J J J J J J J J J J J J J J J J J J J J J J J   ",
"   . . . . . . . . . . . . . . . . . . . . . . . .>.^ ,. . . . . . . . .'.^ X  . . . . . . . . . . . . . . . . . . . . . . . .  ",
"  W W W W W W W ).!.~.{.].^./.(._.W W W W W W W W :.^ <.W W W W W W W W [.^ }.W W W W W W W W |.1.2.^.3.{.4.5.6.W W W W W W W 7.",
"8.W W W W W W 6.9.^ ^ ^ ^ ^ ^ ^ : 6 0.a.6.W W W W b.^ : c.W W W W W W 6.d.^ a.W W W W ).e.,.f.g.^ ^ ^ ^ ^ ^ ^ D h.W W W W W W W ",
"W W W W W W W W i.^ ^ ^ ^ ^ ^ ^ ^ ^ ^ ^ j.k._.W W ).0 ^ l.W W W W W W 4.^ : m.W W n.o.p.^ ^ ^ ^ ^ ^ ^ ^ ^ ^ ^ 0.W W W W W W W  .",
"q.W W W W W W W r.0 ^ ^ s.t.u.v.S w.x.^ ^ ^ y.z.).W A.^ B.W W W W W W X ^ C.W W D.} ^ ^ ^ g.E.F.v.u.G.H.^ ^ I.J.W W W W W W W W ",
"K.W W W W W W W W L.^ ^ M.W W W W W h.o.@.^ ^ ^ N.O.P.^ ^ Q.W W W W R.g.^ v.n.S.^ ^ ^ T.f !.W W W W W U.^ ^ V.W W W W W W W W W ",
"W.W W W W W W W W 6.6 ^ N.W W W W W W W X.z.j.^ ^ Y.Z.0 ^ `.W W W W  +^ g..+++^ ^ @+#+n.W W W W W W W $+^ 2 %+W W W W W W W W W ",
"8.W W W W W W W W W &+I.I.*+W W W W W W W W _.=+9 ^ } -+^ ^ ].W W ;+g.^ >+<.^ ^ N.,+W W W W W W W W '+L 9 )+W W W W W W W W W W ",
"!+8.8.8.8.8.8.8.8.8.8.~+^ F.8.8.8.8.8.8.8.8.8.8.{+L ^ ]+^ ^ 2 ^+/+6 ^ ^ ]+^ 1 z.8.8.8.8.8.8.8.8.8.8.(+^ _+8.8.8.8.8.8.8.8.8.8.8.",
"  8.8.8.8.8.8.8.8.8.8.8.F.: :+8.8.8.8.8.8.8.8.8.8.<+[+^ ^ ^ ^ }+|+^ ^ ^ ^ j.;+8.8.8.8.8.8.8.8.8.8.1+v 2+3+8.8.8.8.8.8.8.8.8.8.  ",
"  4+4+4+4+4+4+4+4+4+4+4+5+6+j.7+4+4+4+4+4+4+4+4+4+4+8+H.^ ^ ^ ^ : ^ ^ ^ w.9+4+4+4+4+4+4+4+4+4+4+0+a+b+8+4+4+4+4+4+4+4+4+4+4+4+  ",
"  c+4+4+4+4+4+4+4+4+4+4+4+d+e+f+9+4+4+4+4+4+4+4+4+4+4+d+g+^ ^ ^ ^ ^ ^ h+i+4+4+4+4+4+4+4+4+4+4+j+b+k+l+4+4+4+4+4+4+4+4+4+4+4+4+  ",
"  m+4+4+4+4+4+4+4+4+4+4+4+4+4+n+C.o+4+4+4+4+4+4+4+4+4+4+d+p+^ ^ ^ ^ q+l+4+4+4+4+4+4+4+4+4+4+7+<.r+s+4+4+4+4+4+4+4+4+4+4+4+4+4+  ",
"  s+4+4+4+4+4+4+4+4+4+4+4+4+4+4+7+t+u+4+4+4+4+4+4+4+0+v+w+x+y+^ ^ 1 z+A+B+C+4+4+4+4+4+4+4+D+E+F+4+4+4+4+4+4+4+4+4+4+4+4+4+4+).  ",
"    4+4+4+4+4+4+4+4+4+4+4+4+4+4+4+4+G+H+l+4+4+I+J+>+g.^ K+L+s.^ ^ 6 M+p.^ 9 N+r+O+4+4+5+P+Q+4+4+4+4+4+4+4+4+4+4+4+4+4+4+4+4+    ",
"    c+c+c+c+c+c+c+c+c+c+c+c+c+c+c+c+c+c+c+c+R+T.^ S+T+U+c+V+d.1 W+X+Y+c+Z+`+f+^ 0 `+ @c+c+c+c+c+c+c+c+c+c+c+c+c+c+c+c+c+c+c+    ",
"    c+c+c+c+c+c+c+c+c+c+c+c+c+c+c+c+c+c+.@+@^ @@#@d+c+c+c+$@^ %@&@^ *@c+c+c+ @=@-@^ 2+0+c+c+c+c+c+c+c+c+c+c+c+c+c+c+c+c+c+c+    ",
"      c+c+c+c+c+c+c+c+c+c+c+c+c+c+c+c+;@>@g.,@'@c+c+c+c+c+)@!@d+c+~@{@ @c+c+c+c+c+n+]@^@/@c+c+c+c+c+c+c+c+c+c+c+c+c+c+c+c+      ",
"      c+c+c+c+c+c+c+c+c+c+c+c+c+c+c+c+(@9 R+c+c+c+c+c+c+8+: r+c+c+#@^ _@c+c+c+c+c+c+:@<@[@'@c+c+c+c+c+c+c+c+c+c+c+c+c+c+c+      ",
"        c+c+c+c+c+c+c+c+c+c+c+c+c+c+R+^ }@c+c+c+c+c+.@7+|@^ 1@c+c+2@3@4@5@O+c+c+c+c+c+z+^ 6@c+c+c+c+c+c+c+c+c+c+c+c+c+c+        ",
"        c+c+c+c+c+c+c+c+c+c+c+c+c+.@7@^ [+r+8@:@9@0@a@d+b@9 /+c+c+c+c@d@c+e@f@g@:@8@h@i@^ j@k@c+c+c+c+c+c+c+c+c+c+c+c+l@        ",
"          m@m@m@m@m@m@m@m@m@m@m@m@n@o@p@N+[+q@r@s@t@m@m@u@^ v@m@m@m@c@`+m@m@5+w@x@2+[+y@z@*@A@m@m@m@m@m@m@m@m@m@m@m@m@          ",
"            m@m@m@m@m@m@m@m@m@m@m@m@m@m@m@m@m@m@m@m@m@m@B@^ C@m@m@D@: R+m@m@m@m@m@m@m@m@m@m@m@m@m@m@m@m@m@m@m@m@m@m@E@          ",
"            F@m@m@m@m@m@m@m@m@m@m@m@m@m@m@m@m@m@m@m@m@m@8+: G@m@m@R+^ H@m@m@m@m@m@m@m@m@m@m@m@m@m@m@m@m@m@m@m@m@m@m@            ",
"              m@m@m@m@m@m@m@m@m@m@m@m@m@m@m@m@m@m@m@m@m@m@)@{@t@m@)@S+'@m@m@m@m@m@m@m@m@m@m@m@m@m@m@m@m@m@m@m@m@m@              ",
"                m@m@m@m@m@m@m@m@m@m@m@m@m@m@m@m@m@m@m@m@m@%@^ f@I@^ J@m@m@m@m@m@m@m@m@m@m@m@m@m@m@m@m@m@m@m@m@m@                ",
"                  m@m@m@m@m@m@m@m@m@m@m@m@m@m@m@m@m@m@m@m@8+K@I.L@M@N@m@m@m@m@m@m@m@m@m@m@m@m@m@m@m@m@m@m@m@m@                  ",
"                    O@O@O@O@O@O@O@O@O@O@O@O@O@O@O@O@O@O@O@O@P@^ ^ Q@O@O@O@O@O@O@O@O@O@O@O@O@O@O@O@O@O@O@O@O@R@                  ",
"                      O@O@O@O@O@O@O@O@O@O@O@O@O@O@O@O@O@O@O@S@T@m U@O@O@O@O@O@O@O@O@O@O@O@O@O@O@O@O@O@O@O@                      ",
"                        O@O@O@O@O@O@O@O@O@O@O@O@O@O@O@O@O@O@O@V@W@O@O@O@O@O@O@O@O@O@O@O@O@O@O@O@O@O@O@O@                        ",
"                          X@O@O@O@O@O@O@O@O@O@O@O@O@O@O@O@O@O@O@O@O@O@O@O@O@O@O@O@O@O@O@O@O@O@O@O@O@O@                          ",
"                            Y@O@O@O@O@O@O@O@O@O@O@O@O@O@O@O@O@O@O@O@O@O@O@O@O@O@O@O@O@O@O@O@O@O@O@m@                            ",
"                                Z@`@`@`@`@`@`@`@`@`@`@`@`@`@`@`@`@`@`@`@`@`@`@`@`@`@`@`@`@`@`@ #                                ",
"                                    .#`@`@`@`@`@`@`@`@`@`@`@`@`@`@`@`@`@`@`@`@`@`@`@`@`@`@+#                                    ",
"                                        @#+#+#+#+#+#+#+#+#+#+#+#+#+#+#+#+#+#+#+#+#+#+#+#                                        ",
"                                              @#+#+#+#+#+#+#+#+#+#+#+#+#+#+#+#+#+#                                              ",
"                                                        ##`@##+#+#+#`@@#                                                        "};
