/* XPM */
static char * bitcoin16_xpm[] = {
"16 16 93 2",
"  	c None",
". 	c #207AA0",
"+ 	c #207AA1",
"@ 	c #1F7AA0",
"# 	c #207BA1",
"$ 	c #217CA1",
"% 	c #227CA2",
"& 	c #207CA1",
"* 	c #78AFC6",
"= 	c #7EB3C9",
"- 	c #217BA2",
"; 	c #2F85A7",
"> 	c #C3DCE6",
", 	c #BFD9E4",
"' 	c #3186A8",
") 	c #1F7DA2",
"! 	c #217CA2",
"~ 	c #73ACC4",
"{ 	c #549AB8",
"] 	c #4E97B5",
"^ 	c #217DA2",
"/ 	c #9CC5D5",
"( 	c #237EA3",
"_ 	c #217EA3",
": 	c #91BFD1",
"< 	c #90BED1",
"[ 	c #B1D1DF",
"} 	c #BED9E4",
"| 	c #ABCEDC",
"1 	c #5CA0BC",
"2 	c #8BBCCF",
"3 	c #358AAB",
"4 	c #3087A9",
"5 	c #5A9FBB",
"6 	c #AACDDC",
"7 	c #BCD8E3",
"8 	c #B5D4E0",
"9 	c #227FA3",
"0 	c #6FACC3",
"a 	c #589EBA",
"b 	c #2B84A7",
"c 	c #83B7CC",
"d 	c #B7D5E1",
"e 	c #9FC7D7",
"f 	c #98C3D4",
"g 	c #B9D7E2",
"h 	c #87B9CD",
"i 	c #2C85A8",
"j 	c #529AB7",
"k 	c #74AEC5",
"l 	c #217FA3",
"m 	c #217FA4",
"n 	c #68A8C1",
"o 	c #3188AA",
"p 	c #4A97B5",
"q 	c #E6F0F5",
"r 	c #E7F1F5",
"s 	c #4D99B6",
"t 	c #2F87AA",
"u 	c #69A9C2",
"v 	c #2180A4",
"w 	c #328AAB",
"x 	c #529CB8",
"y 	c #7EB5CA",
"z 	c #A9CEDC",
"A 	c #ABCFDD",
"B 	c #7DB5CA",
"C 	c #539DB9",
"D 	c #539CB8",
"E 	c #7BB3C9",
"F 	c #388DAD",
"G 	c #70ADC4",
"H 	c #71AEC5",
"I 	c #76B1C7",
"J 	c #579FBA",
"K 	c #2281A5",
"L 	c #328AAC",
"M 	c #3F92B1",
"N 	c #2583A6",
"O 	c #72AEC5",
"P 	c #2582A6",
"Q 	c #348BAC",
"R 	c #2280A4",
"S 	c #2282A6",
"T 	c #75B0C7",
"U 	c #2382A6",
"V 	c #2182A5",
"W 	c #2282A5",
"X 	c #2483A6",
"Y 	c #2282A4",
"Z 	c #2183A7",
"` 	c #2283A6",
" .	c #2383A6",
"            . + . @             ",
"        # # # $ % # # # &       ",
"    # # # # # * = # # # # -     ",
"    & & & & ; > , ' & & & & )   ",
"  ! ! ! ! ! ~ { ] * ! ! ! ! !   ",
"  ^ ^ ^ ^ ^ / ( ^ / ^ ^ ^ ^ ^ _ ",
"^ ^ ^ ^ ^ ^ : ^ ^ < ^ ^ ^ ^ ^ ^ ",
"_ _ [ } | 1 2 3 4 < 5 6 7 8 9 _ ",
"_ _ 0 a b c d e f g h i j k _ _ ",
"l m m n o m p q r s m t u m m m ",
"  v v v w x y z A B C w v v v v ",
"  v v v D E F G H F I J v v v   ",
"  K K K L M N O O P M Q K K R   ",
"    S K K K K O T K K K K U     ",
"      V W W W X N W W W Y       ",
"          Z ` ` ` `  .          "};
