/* XPM */
static char * bitcoin32_xpm[] = {
"32 32 214 2",
"  	c None",
". 	c #1F7AA0",
"+ 	c #207AA0",
"@ 	c #2079A0",
"# 	c #207AA1",
"$ 	c #1F7BA0",
"% 	c #207BA0",
"& 	c #207BA1",
"* 	c #217AA0",
"= 	c #257EA3",
"- 	c #2980A5",
"; 	c #207CA1",
"> 	c #207CA0",
", 	c #98C2D3",
"' 	c #A4C9D9",
") 	c #1F7BA1",
"! 	c #207BA2",
"~ 	c #549AB7",
"{ 	c #FDFEFE",
"] 	c #FFFFFF",
"^ 	c #5FA0BC",
"/ 	c #217DA1",
"( 	c #D0E3EB",
"_ 	c #DBEAF0",
": 	c #D2E4EC",
"< 	c #DAE9F0",
"[ 	c #237EA2",
"} 	c #61A2BC",
"| 	c #FBFDFE",
"1 	c #4D96B4",
"2 	c #4491B0",
"3 	c #F8FBFC",
"4 	c #6DA9C1",
"5 	c #217BA2",
"6 	c #217CA2",
"7 	c #B8D5E1",
"8 	c #ADCFDD",
"9 	c #A0C7D7",
"0 	c #C5DDE7",
"a 	c #217CA1",
"b 	c #257FA4",
"c 	c #F5F9FB",
"d 	c #4B95B4",
"e 	c #3E8DAE",
"f 	c #FCFDFE",
"g 	c #2C83A7",
"h 	c #217DA2",
"i 	c #E5F0F4",
"j 	c #DAE9EF",
"k 	c #5A9FBA",
"l 	c #66A5BF",
"m 	c #C0DAE5",
"n 	c #B4D3E0",
"o 	c #72ACC4",
"p 	c #6FABC3",
"q 	c #B5D4E0",
"r 	c #A7CCDA",
"s 	c #7CB2C8",
"t 	c #227DA2",
"u 	c #217DA3",
"v 	c #60A2BD",
"w 	c #C7DEE8",
"x 	c #BAD7E2",
"y 	c #6CA9C2",
"z 	c #217DA4",
"A 	c #217EA3",
"B 	c #227FA3",
"C 	c #8DBDD0",
"D 	c #AFD0DE",
"E 	c #A8CCDB",
"F 	c #89BACE",
"G 	c #529AB7",
"H 	c #4090B0",
"I 	c #F2F7FA",
"J 	c #2581A5",
"K 	c #E9F2F6",
"L 	c #4D98B5",
"M 	c #4E98B6",
"N 	c #86B9CD",
"O 	c #A6CBDA",
"P 	c #B0D1DE",
"Q 	c #93C0D2",
"R 	c #2480A4",
"S 	c #9DC6D7",
"T 	c #D8E8EF",
"U 	c #C4DDE6",
"V 	c #DAEAF0",
"W 	c #FEFEFF",
"X 	c #DDEBF1",
"Y 	c #6BA9C2",
"Z 	c #EAF3F6",
"` 	c #539BB8",
" .	c #F4F8FA",
"..	c #64A5BF",
"+.	c #D3E6ED",
"@.	c #ABCEDC",
"#.	c #217EA2",
"$.	c #207EA4",
"%.	c #358AAB",
"&.	c #63A4BE",
"*.	c #3D8EAF",
"=.	c #9CC5D6",
"-.	c #F9FBFC",
";.	c #A7CCDB",
">.	c #C6DEE7",
",.	c #B9D7E2",
"'.	c #B2D2DF",
").	c #4191B0",
"!.	c #569DB9",
"~.	c #FAFCFD",
"{.	c #3E8FAF",
"].	c #207EA3",
"^.	c #71ADC4",
"/.	c #4392B1",
"(.	c #D3E5ED",
"_.	c #E3EFF3",
":.	c #68A7C0",
"<.	c #5CA0BC",
"[.	c #DCEBF1",
"}.	c #7DB4C9",
"|.	c #207FA2",
"1.	c #217FA3",
"2.	c #9BC5D6",
"3.	c #6BAAC2",
"4.	c #2883A6",
"5.	c #ECF4F7",
"6.	c #E4EFF4",
"7.	c #C3DCE6",
"8.	c #2B85A7",
"9.	c #5FA3BD",
"0.	c #A6CCDA",
"a.	c #2180A3",
"b.	c #217FA4",
"c.	c #7AB2C8",
"d.	c #60A3BE",
"e.	c #2481A5",
"f.	c #A9CDDC",
"g.	c #B4D4E0",
"h.	c #2682A6",
"i.	c #599FBB",
"j.	c #81B6CB",
"k.	c #227FA4",
"l.	c #2180A4",
"m.	c #4393B2",
"n.	c #4695B3",
"o.	c #2380A5",
"p.	c #559DB9",
"q.	c #9CC6D6",
"r.	c #9DC7D7",
"s.	c #5AA0BC",
"t.	c #4594B3",
"u.	c #2080A3",
"v.	c #C7DFE8",
"w.	c #9BC6D6",
"x.	c #4494B2",
"y.	c #3289AB",
"z.	c #D7E8EF",
"A.	c #4796B4",
"B.	c #3F91B0",
"C.	c #96C3D4",
"D.	c #CAE1E9",
"E.	c #4D99B6",
"F.	c #CDE2EA",
"G.	c #83B8CC",
"H.	c #6EACC3",
"I.	c #61A5BE",
"J.	c #93C1D3",
"K.	c #3A8EAE",
"L.	c #2280A3",
"M.	c #2381A5",
"N.	c #8FBFD1",
"O.	c #509BB7",
"P.	c #378CAD",
"Q.	c #ACD0DD",
"R.	c #338AAB",
"S.	c #2984A7",
"T.	c #B7D6E1",
"U.	c #348BAC",
"V.	c #519BB8",
"W.	c #DEECF1",
"X.	c #2582A6",
"Y.	c #2281A5",
"Z.	c #2884A7",
"`.	c #65A7C0",
" +	c #79B2C8",
".+	c #66A8C1",
"++	c #3189AB",
"@+	c #ADD0DD",
"#+	c #358CAD",
"$+	c #2B86A9",
"%+	c #B7D6E2",
"&+	c #2E88AA",
"*+	c #64A7C0",
"=+	c #78B2C8",
"-+	c #2C87A9",
";+	c #2280A5",
">+	c #87BACE",
",+	c #73AFC6",
"'+	c #92C1D3",
")+	c #2182A4",
"!+	c #3B8FAF",
"~+	c #DFEDF2",
"{+	c #4494B3",
"]+	c #2283A5",
"^+	c #2282A5",
"/+	c #90C0D2",
"(+	c #9BC7D6",
"_+	c #2282A4",
":+	c #2885A7",
"<+	c #2C88A9",
"[+	c #2282A6",
"}+	c #2283A6",
"|+	c #2182A7",
"1+	c #2182A5",
"                          . + @ . + #                           ",
"                    + + + + + + + + + + + +                     ",
"                $ % % % % % % % % % % % % % % &                 ",
"            * & & & & & & & & = - & & & & & & & & ;             ",
"          > & & & & & & & & & , ' & & & & & & & & & )           ",
"        ! & & & & & & & & & ~ { ] ^ & & & & & & & & & &         ",
"      ! ; ; ; ; ; ; ; ; ; / ( _ : < [ ; ; ; ; ; ; ; ; ; ;       ",
"      ; ; ; ; ; ; ; ; ; ; } | 1 2 3 4 ; ; ; ; ; ; ; ; ; ;       ",
"    5 6 6 6 6 6 6 6 6 6 6 7 8 6 6 9 0 6 6 6 6 6 6 6 6 6 6 a     ",
"    6 6 6 6 6 6 6 6 6 6 b c d 6 6 e f g 6 6 6 6 6 6 6 6 6 6     ",
"  h h h h h h h h h h h 1 i h h h h j k h h h h h h h h h h /   ",
"  h h h h h h h h h h h l m h h h h n o h h h h h h h h h h h   ",
"  h h h h h h h h h h h p q h h h h r s h h h h h h h h h h h t ",
"u u u u u u u u u u u u v w u u u u x y u u u u u u u u u u u z ",
"A A A B C D q E F G B A H I J A A B K L A A M N O q P Q R A A A ",
"A A A A S ] T U V W X Y A Z v A A `  .R ..T W X U +.] @.A A A #.",
"$.A A A %.c &.A A *.=.-.P ;.>.A A ,.'.O W E ).A A !.~.{.A A A #.",
"].A A A A ^.,.A A A A /.(._.] :.<.W _.[.!.A A A A 8 }.A A A A $.",
"|.1.1.1.1.1.2.3.1.1.1.1.4.,.] 5.6.] 7.8.1.1.1.1.9.0.1.1.1.1.1.a.",
"  b.b.b.b.b.b.c.d.b.b.b.b.e.f.] ] g.h.b.b.b.b.i.j.k.b.b.b.b.b.l.",
"  b.b.b.b.b.b.b.m.n.o.b.p.q.q.5. .2.r.s.k.k.t.n.b.b.b.b.b.b.b.  ",
"  u.l.l.l.l.l.l.l.l.n.v.w.x.y.V z.A.B.C.D.E.l.l.l.l.l.l.l.l.l.  ",
"    l.l.l.l.l.l.l.n.F.B.l.l.G.H.I.J.l.l.K.D.E.l.l.l.l.l.l.l.L.  ",
"    l.l.l.l.l.l.M.+.N.B.O.P.Q.R.S.T.U.V.B.G.W.X.l.l.l.l.l.a.    ",
"      Y.Y.Y.Y.Y.Z.`. +.+++Y.@+#+$+%+Y.&+*+=+.+-+Y.Y.Y.Y.Y.      ",
"      ;+Y.Y.Y.Y.Y.Y.Y.Y.Y.Y.>+,+.+'+Y.Y.Y.Y.Y.Y.Y.Y.Y.Y.)+      ",
"        Y.Y.Y.Y.Y.Y.Y.Y.Y.Y.!+~+V {+Y.Y.Y.Y.Y.Y.Y.Y.Y.Y.        ",
"          ]+^+^+^+^+^+^+^+^+^+/+(+^+^+^+^+^+^+^+^+^+^+          ",
"            _+^+^+^+^+^+^+^+^+:+<+^+^+^+^+^+^+^+^+)+            ",
"                [+[+[+[+[+[+[+[+[+[+[+[+[+[+[+[+                ",
"                    }+}+}+}+}+}+}+}+}+}+}+}+]+                  ",
"                        [+|+[+]+}+[+[+1+                        "};
